<svg width="654" height="137" viewBox="0 0 654 137" fill="none" xmlns="http://www.w3.org/2000/svg">
<g clip-path="url(#clip0_1_1019)">
<rect width="653" height="137" fill="url(#paint0_linear_1_1019)"/>
<rect width="653" height="137" fill="url(#paint1_radial_1_1019)" fill-opacity="0.2"/>
<path d="M145 81.5C96.6 81.5 28.5 69.5 0.5 63.5V92C28.3333 98.6667 96.2 112 145 112C206 112 236 93.5 265 81.5C294 69.5 330 75.5 372.5 78C406.5 80 433.333 65.1667 442.5 57.5C408.5 67.5 318.5 47.5 287 47.5C255.5 47.5 205.5 81.5 145 81.5Z" fill="white" fill-opacity="0.1"/>
<ellipse cx="571.281" cy="105.975" rx="73" ry="14" transform="rotate(8.77689 571.281 105.975)" fill="white" fill-opacity="0.1"/>
<path d="M147 120.5C100.6 115.3 30 111.333 0.5 110V136.5H653.5V120.5C578 120.5 529 103 424 103C319 103 205 127 147 120.5Z" fill="url(#paint2_linear_1_1019)"/>
<path d="M147 16C100.6 21.2 30 25.1667 0.5 26.5V0H653.5V16C578 16 529 33.5 424 33.5C319 33.5 205 9.5 147 16Z" fill="url(#paint3_linear_1_1019)"/>
<path d="M560.087 21.8254C608.412 19.1388 676.038 8.72181 703.811 3.84916L704.687 19.6117C677.101 24.8438 609.749 35.9853 561.025 38.6941C500.119 42.08 469.596 33.5135 440.272 28.4863C410.948 23.4592 375.188 28.7759 332.83 32.5177C298.944 35.5111 271.696 28.7966 262.308 25.0652C296.563 28.7087 385.809 12.6515 417.26 10.903C448.712 9.15453 499.68 25.1836 560.087 21.8254Z" fill="white" fill-opacity="0.1"/>
<g filter="url(#filter0_ddddi_1_1019)">
<path d="M586 59.4941C615.2 64.2941 642.833 65.4941 653 65.4941V73.994C637.333 72.494 602.3 68.994 587.5 66.994C569 64.494 537.5 57.494 512 56.494C491.6 55.694 436.167 60.494 411 62.994C433.167 58.994 481.8 50.4941 499 48.4941C520.5 45.9941 549.5 53.4941 586 59.4941Z" fill="#9B6424"/>
</g>
<g filter="url(#filter1_ddddi_1_1019)">
<path d="M128.74 85.8436C72.6322 89.5368 19.5351 90.4601 0 90.4601V97C30.1033 95.8459 97.4194 93.153 125.857 91.6141C161.405 89.6906 221.932 84.3048 270.93 83.5354C310.128 82.9198 416.643 86.613 465 88.5365C422.407 85.4589 328.959 78.9189 295.909 77.3801C254.597 75.4566 198.874 81.2272 128.74 85.8436Z" fill="#9B6424"/>
</g>
<g filter="url(#filter2_ddddi_1_1019)">
<path d="M39 37C32.6 37.4 18.3333 34.5 12 33C27.5 41 71.5 41.5 82 41.5C92.5 41.5 110 48 119 48.5C126.2 48.9 194 53.5 226.5 50C207.5 48.5 202 45 170 43C138 41 146 39 135 38C124 37 125.5 41 110 39C94.5 37 65.5 38 58 37C50.5 36 47 36.5 39 37Z" fill="#9B6424"/>
</g>
<g filter="url(#filter3_ddddi_1_1019)">
<path d="M365.5 22.7361C405.9 22.7361 475.333 28.0694 505 30.7361C472.5 22.7361 391 18.7361 365.5 18.7361C340 18.7361 347.5 16.2361 312 17.2361C283.6 18.0361 255.5 26.5694 245 30.7361C275 30.7361 315 22.7361 365.5 22.7361Z" fill="#9B6424"/>
</g>
<g filter="url(#filter4_i_1_1019)">
<path d="M-2 136.5V126C21.5 126 24 120 34 120C44 120 49.5 126.5 72.5 126.5C95.5 126.5 136.5 130 145.5 130C154.5 130 160.5 126.5 172 126.5C183.5 126.5 184.5 128.5 194 128.5H244.5C280 128.5 300 120 319 120C338 120 342 124 362 124C382 124 391.5 121.5 412 121.5C432.5 121.5 446 128.5 487 128.5C528 128.5 579 121.5 598.5 121.5C618 121.5 625.5 124 637 125C646.2 125.8 652.833 126 655 126V136.5H-2Z" fill="#83541E"/>
</g>
<path d="M116 13C81 13 66 8 43 8C28.444 8 13.9674 10.5 -0.5 10.5V0H655V9.5C653.5 10.3333 648.5 12 640.5 12C630.5 12 620.5 8 601.5 8C582.5 8 583 13 553 13C523 13 520 8 475 8C430 8 404 14.5 354.5 14.5C305 14.5 271.5 9.5 229 9.5C186.5 9.5 151 13 116 13Z" fill="url(#paint4_linear_1_1019)"/>
</g>
<defs>
<filter id="filter0_ddddi_1_1019" x="411" y="48" width="242" height="27.994" filterUnits="userSpaceOnUse" color-interpolation-filters="sRGB">
<feFlood flood-opacity="0" result="BackgroundImageFix"/>
<feColorMatrix in="SourceAlpha" type="matrix" values="0 0 0 0 0 0 0 0 0 0 0 0 0 0 0 0 0 0 127 0" result="hardAlpha"/>
<feOffset dy="0.5"/>
<feComposite in2="hardAlpha" operator="out"/>
<feColorMatrix type="matrix" values="0 0 0 0 1 0 0 0 0 0.941176 0 0 0 0 0.784314 0 0 0 1 0"/>
<feBlend mode="normal" in2="BackgroundImageFix" result="effect1_dropShadow_1_1019"/>
<feColorMatrix in="SourceAlpha" type="matrix" values="0 0 0 0 0 0 0 0 0 0 0 0 0 0 0 0 0 0 127 0" result="hardAlpha"/>
<feOffset dy="1"/>
<feComposite in2="hardAlpha" operator="out"/>
<feColorMatrix type="matrix" values="0 0 0 0 1 0 0 0 0 0.941176 0 0 0 0 0.784314 0 0 0 1 0"/>
<feBlend mode="normal" in2="effect1_dropShadow_1_1019" result="effect2_dropShadow_1_1019"/>
<feColorMatrix in="SourceAlpha" type="matrix" values="0 0 0 0 0 0 0 0 0 0 0 0 0 0 0 0 0 0 127 0" result="hardAlpha"/>
<feOffset dy="1.5"/>
<feComposite in2="hardAlpha" operator="out"/>
<feColorMatrix type="matrix" values="0 0 0 0 1 0 0 0 0 0.941176 0 0 0 0 0.784314 0 0 0 1 0"/>
<feBlend mode="normal" in2="effect2_dropShadow_1_1019" result="effect3_dropShadow_1_1019"/>
<feColorMatrix in="SourceAlpha" type="matrix" values="0 0 0 0 0 0 0 0 0 0 0 0 0 0 0 0 0 0 127 0" result="hardAlpha"/>
<feOffset dy="2"/>
<feComposite in2="hardAlpha" operator="out"/>
<feColorMatrix type="matrix" values="0 0 0 0 1 0 0 0 0 0.941176 0 0 0 0 0.784314 0 0 0 1 0"/>
<feBlend mode="normal" in2="effect3_dropShadow_1_1019" result="effect4_dropShadow_1_1019"/>
<feBlend mode="normal" in="SourceGraphic" in2="effect4_dropShadow_1_1019" result="shape"/>
<feColorMatrix in="SourceAlpha" type="matrix" values="0 0 0 0 0 0 0 0 0 0 0 0 0 0 0 0 0 0 127 0" result="hardAlpha"/>
<feOffset dy="2"/>
<feGaussianBlur stdDeviation="0.5"/>
<feComposite in2="hardAlpha" operator="arithmetic" k2="-1" k3="1"/>
<feColorMatrix type="matrix" values="0 0 0 0 0 0 0 0 0 0 0 0 0 0 0 0 0 0 0.25 0"/>
<feBlend mode="normal" in2="shape" result="effect5_innerShadow_1_1019"/>
</filter>
<filter id="filter1_ddddi_1_1019" x="0" y="77" width="465" height="22" filterUnits="userSpaceOnUse" color-interpolation-filters="sRGB">
<feFlood flood-opacity="0" result="BackgroundImageFix"/>
<feColorMatrix in="SourceAlpha" type="matrix" values="0 0 0 0 0 0 0 0 0 0 0 0 0 0 0 0 0 0 127 0" result="hardAlpha"/>
<feOffset dy="0.5"/>
<feComposite in2="hardAlpha" operator="out"/>
<feColorMatrix type="matrix" values="0 0 0 0 1 0 0 0 0 0.941176 0 0 0 0 0.784314 0 0 0 1 0"/>
<feBlend mode="normal" in2="BackgroundImageFix" result="effect1_dropShadow_1_1019"/>
<feColorMatrix in="SourceAlpha" type="matrix" values="0 0 0 0 0 0 0 0 0 0 0 0 0 0 0 0 0 0 127 0" result="hardAlpha"/>
<feOffset dy="1"/>
<feComposite in2="hardAlpha" operator="out"/>
<feColorMatrix type="matrix" values="0 0 0 0 1 0 0 0 0 0.941176 0 0 0 0 0.784314 0 0 0 1 0"/>
<feBlend mode="normal" in2="effect1_dropShadow_1_1019" result="effect2_dropShadow_1_1019"/>
<feColorMatrix in="SourceAlpha" type="matrix" values="0 0 0 0 0 0 0 0 0 0 0 0 0 0 0 0 0 0 127 0" result="hardAlpha"/>
<feOffset dy="1.5"/>
<feComposite in2="hardAlpha" operator="out"/>
<feColorMatrix type="matrix" values="0 0 0 0 1 0 0 0 0 0.941176 0 0 0 0 0.784314 0 0 0 1 0"/>
<feBlend mode="normal" in2="effect2_dropShadow_1_1019" result="effect3_dropShadow_1_1019"/>
<feColorMatrix in="SourceAlpha" type="matrix" values="0 0 0 0 0 0 0 0 0 0 0 0 0 0 0 0 0 0 127 0" result="hardAlpha"/>
<feOffset dy="2"/>
<feComposite in2="hardAlpha" operator="out"/>
<feColorMatrix type="matrix" values="0 0 0 0 1 0 0 0 0 0.941176 0 0 0 0 0.784314 0 0 0 1 0"/>
<feBlend mode="normal" in2="effect3_dropShadow_1_1019" result="effect4_dropShadow_1_1019"/>
<feBlend mode="normal" in="SourceGraphic" in2="effect4_dropShadow_1_1019" result="shape"/>
<feColorMatrix in="SourceAlpha" type="matrix" values="0 0 0 0 0 0 0 0 0 0 0 0 0 0 0 0 0 0 127 0" result="hardAlpha"/>
<feOffset dy="2"/>
<feGaussianBlur stdDeviation="0.5"/>
<feComposite in2="hardAlpha" operator="arithmetic" k2="-1" k3="1"/>
<feColorMatrix type="matrix" values="0 0 0 0 0 0 0 0 0 0 0 0 0 0 0 0 0 0 0.25 0"/>
<feBlend mode="normal" in2="shape" result="effect5_innerShadow_1_1019"/>
</filter>
<filter id="filter2_ddddi_1_1019" x="12" y="33" width="214.5" height="20.3057" filterUnits="userSpaceOnUse" color-interpolation-filters="sRGB">
<feFlood flood-opacity="0" result="BackgroundImageFix"/>
<feColorMatrix in="SourceAlpha" type="matrix" values="0 0 0 0 0 0 0 0 0 0 0 0 0 0 0 0 0 0 127 0" result="hardAlpha"/>
<feOffset dy="0.5"/>
<feComposite in2="hardAlpha" operator="out"/>
<feColorMatrix type="matrix" values="0 0 0 0 1 0 0 0 0 0.941176 0 0 0 0 0.784314 0 0 0 1 0"/>
<feBlend mode="normal" in2="BackgroundImageFix" result="effect1_dropShadow_1_1019"/>
<feColorMatrix in="SourceAlpha" type="matrix" values="0 0 0 0 0 0 0 0 0 0 0 0 0 0 0 0 0 0 127 0" result="hardAlpha"/>
<feOffset dy="1"/>
<feComposite in2="hardAlpha" operator="out"/>
<feColorMatrix type="matrix" values="0 0 0 0 1 0 0 0 0 0.941176 0 0 0 0 0.784314 0 0 0 1 0"/>
<feBlend mode="normal" in2="effect1_dropShadow_1_1019" result="effect2_dropShadow_1_1019"/>
<feColorMatrix in="SourceAlpha" type="matrix" values="0 0 0 0 0 0 0 0 0 0 0 0 0 0 0 0 0 0 127 0" result="hardAlpha"/>
<feOffset dy="1.5"/>
<feComposite in2="hardAlpha" operator="out"/>
<feColorMatrix type="matrix" values="0 0 0 0 1 0 0 0 0 0.941176 0 0 0 0 0.784314 0 0 0 1 0"/>
<feBlend mode="normal" in2="effect2_dropShadow_1_1019" result="effect3_dropShadow_1_1019"/>
<feColorMatrix in="SourceAlpha" type="matrix" values="0 0 0 0 0 0 0 0 0 0 0 0 0 0 0 0 0 0 127 0" result="hardAlpha"/>
<feOffset dy="2"/>
<feComposite in2="hardAlpha" operator="out"/>
<feColorMatrix type="matrix" values="0 0 0 0 1 0 0 0 0 0.941176 0 0 0 0 0.784314 0 0 0 1 0"/>
<feBlend mode="normal" in2="effect3_dropShadow_1_1019" result="effect4_dropShadow_1_1019"/>
<feBlend mode="normal" in="SourceGraphic" in2="effect4_dropShadow_1_1019" result="shape"/>
<feColorMatrix in="SourceAlpha" type="matrix" values="0 0 0 0 0 0 0 0 0 0 0 0 0 0 0 0 0 0 127 0" result="hardAlpha"/>
<feOffset dy="2"/>
<feGaussianBlur stdDeviation="0.5"/>
<feComposite in2="hardAlpha" operator="arithmetic" k2="-1" k3="1"/>
<feColorMatrix type="matrix" values="0 0 0 0 0 0 0 0 0 0 0 0 0 0 0 0 0 0 0.25 0"/>
<feBlend mode="normal" in2="shape" result="effect5_innerShadow_1_1019"/>
</filter>
<filter id="filter3_ddddi_1_1019" x="245" y="17" width="260" height="15.7361" filterUnits="userSpaceOnUse" color-interpolation-filters="sRGB">
<feFlood flood-opacity="0" result="BackgroundImageFix"/>
<feColorMatrix in="SourceAlpha" type="matrix" values="0 0 0 0 0 0 0 0 0 0 0 0 0 0 0 0 0 0 127 0" result="hardAlpha"/>
<feOffset dy="0.5"/>
<feComposite in2="hardAlpha" operator="out"/>
<feColorMatrix type="matrix" values="0 0 0 0 1 0 0 0 0 0.941176 0 0 0 0 0.784314 0 0 0 1 0"/>
<feBlend mode="normal" in2="BackgroundImageFix" result="effect1_dropShadow_1_1019"/>
<feColorMatrix in="SourceAlpha" type="matrix" values="0 0 0 0 0 0 0 0 0 0 0 0 0 0 0 0 0 0 127 0" result="hardAlpha"/>
<feOffset dy="1"/>
<feComposite in2="hardAlpha" operator="out"/>
<feColorMatrix type="matrix" values="0 0 0 0 1 0 0 0 0 0.941176 0 0 0 0 0.784314 0 0 0 1 0"/>
<feBlend mode="normal" in2="effect1_dropShadow_1_1019" result="effect2_dropShadow_1_1019"/>
<feColorMatrix in="SourceAlpha" type="matrix" values="0 0 0 0 0 0 0 0 0 0 0 0 0 0 0 0 0 0 127 0" result="hardAlpha"/>
<feOffset dy="1.5"/>
<feComposite in2="hardAlpha" operator="out"/>
<feColorMatrix type="matrix" values="0 0 0 0 1 0 0 0 0 0.941176 0 0 0 0 0.784314 0 0 0 1 0"/>
<feBlend mode="normal" in2="effect2_dropShadow_1_1019" result="effect3_dropShadow_1_1019"/>
<feColorMatrix in="SourceAlpha" type="matrix" values="0 0 0 0 0 0 0 0 0 0 0 0 0 0 0 0 0 0 127 0" result="hardAlpha"/>
<feOffset dy="2"/>
<feComposite in2="hardAlpha" operator="out"/>
<feColorMatrix type="matrix" values="0 0 0 0 1 0 0 0 0 0.941176 0 0 0 0 0.784314 0 0 0 1 0"/>
<feBlend mode="normal" in2="effect3_dropShadow_1_1019" result="effect4_dropShadow_1_1019"/>
<feBlend mode="normal" in="SourceGraphic" in2="effect4_dropShadow_1_1019" result="shape"/>
<feColorMatrix in="SourceAlpha" type="matrix" values="0 0 0 0 0 0 0 0 0 0 0 0 0 0 0 0 0 0 127 0" result="hardAlpha"/>
<feOffset dy="2"/>
<feGaussianBlur stdDeviation="0.5"/>
<feComposite in2="hardAlpha" operator="arithmetic" k2="-1" k3="1"/>
<feColorMatrix type="matrix" values="0 0 0 0 0 0 0 0 0 0 0 0 0 0 0 0 0 0 0.25 0"/>
<feBlend mode="normal" in2="shape" result="effect5_innerShadow_1_1019"/>
</filter>
<filter id="filter4_i_1_1019" x="-2" y="120" width="657" height="18.5" filterUnits="userSpaceOnUse" color-interpolation-filters="sRGB">
<feFlood flood-opacity="0" result="BackgroundImageFix"/>
<feBlend mode="normal" in="SourceGraphic" in2="BackgroundImageFix" result="shape"/>
<feColorMatrix in="SourceAlpha" type="matrix" values="0 0 0 0 0 0 0 0 0 0 0 0 0 0 0 0 0 0 127 0" result="hardAlpha"/>
<feOffset dy="2"/>
<feGaussianBlur stdDeviation="1"/>
<feComposite in2="hardAlpha" operator="arithmetic" k2="-1" k3="1"/>
<feColorMatrix type="matrix" values="0 0 0 0 0 0 0 0 0 0 0 0 0 0 0 0 0 0 0.25 0"/>
<feBlend mode="normal" in2="shape" result="effect1_innerShadow_1_1019"/>
</filter>
<linearGradient id="paint0_linear_1_1019" x1="345.5" y1="0" x2="345.5" y2="137" gradientUnits="userSpaceOnUse">
<stop stop-color="#B8895B"/>
<stop offset="1" stop-color="#E1B473"/>
</linearGradient>
<radialGradient id="paint1_radial_1_1019" cx="0" cy="0" r="1" gradientUnits="userSpaceOnUse" gradientTransform="translate(326.5 68.5) scale(326.5 68.5)">
<stop stop-color="#EAB873" stop-opacity="0"/>
<stop offset="1" stop-color="#8F5935"/>
</radialGradient>
<linearGradient id="paint2_linear_1_1019" x1="0.5" y1="119.75" x2="653.5" y2="119.75" gradientUnits="userSpaceOnUse">
<stop stop-color="#DDB673"/>
<stop offset="1" stop-color="#BC854C"/>
</linearGradient>
<linearGradient id="paint3_linear_1_1019" x1="0.5" y1="16.75" x2="653.5" y2="16.75" gradientUnits="userSpaceOnUse">
<stop stop-color="#926042"/>
<stop offset="1" stop-color="#B98C55"/>
</linearGradient>
<linearGradient id="paint4_linear_1_1019" x1="338.5" y1="14" x2="338.5" y2="-3" gradientUnits="userSpaceOnUse">
<stop offset="0.2" stop-color="#F9D9B3"/>
<stop offset="0.645" stop-color="#BA8A5A"/>
<stop offset="0.82" stop-color="#9B6424"/>
</linearGradient>
<clipPath id="clip0_1_1019">
<rect width="653.5" height="137" fill="white"/>
</clipPath>
</defs>
</svg>
